<svg xmlns="http://www.w3.org/2000/svg" width="980" height="640" viewBox="0 0 980 640" role="img" aria-labelledby="title desc">
  <title id="title">datamodel-code-generator release benchmarks</title>
  <desc id="desc">Historical median generation time by release version for Large / JSON Schema.</desc>
  <style>
    text { font-family: Inter, ui-sans-serif, system-ui, -apple-system, BlinkMacSystemFont, "Segoe UI", sans-serif; fill: #111827; }
    .muted { fill: #6b7280; }
    .axis { stroke: #374151; stroke-width: 1.2; }
    .grid { stroke: #d1d5db; stroke-width: 1; stroke-dasharray: 4 5; }
    .panel { fill: #ffffff; stroke: #e5e7eb; stroke-width: 1; }
  </style>
  <rect width="100%" height="100%" fill="#ffffff"/>
  <rect class="panel" x="20" y="20" width="940" height="600" rx="8"/>
<text x="44.0" y="48.0" font-size="22" text-anchor="start" font-weight="700">datamodel-code-generator release trend: Large / JSON Schema</text>
<text x="44.0" y="74.0" font-size="13" text-anchor="start" font-weight="400">Median generation time by release version. Lower is faster.</text>
<line class="grid" x1="86" y1="476.0" x2="846" y2="476.0"/>
<text x="74.0" y="480.0" font-size="11" text-anchor="end" font-weight="400">0.00ms</text>
<line class="grid" x1="86" y1="386.0" x2="846" y2="386.0"/>
<text x="74.0" y="390.0" font-size="11" text-anchor="end" font-weight="400">1.45s</text>
<line class="grid" x1="86" y1="296.0" x2="846" y2="296.0"/>
<text x="74.0" y="300.0" font-size="11" text-anchor="end" font-weight="400">2.91s</text>
<line class="grid" x1="86" y1="206.0" x2="846" y2="206.0"/>
<text x="74.0" y="210.0" font-size="11" text-anchor="end" font-weight="400">4.36s</text>
<line class="grid" x1="86" y1="116.0" x2="846" y2="116.0"/>
<text x="74.0" y="120.0" font-size="11" text-anchor="end" font-weight="400">5.82s</text>
<line class="axis" x1="86" y1="116" x2="86" y2="476"/>
<line class="axis" x1="86" y1="476" x2="846" y2="476"/>
<line class="grid" x1="86.0" y1="116" x2="86.0" y2="476"/>
<text x="86.0" y="500.0" font-size="11" text-anchor="middle" font-weight="400">0.17.2</text>
<line class="grid" x1="163.9" y1="116" x2="163.9" y2="476"/>
<text x="163.9" y="500.0" font-size="11" text-anchor="middle" font-weight="400">0.25.6</text>
<line class="grid" x1="241.9" y1="116" x2="241.9" y2="476"/>
<text x="241.9" y="500.0" font-size="11" text-anchor="middle" font-weight="400">0.26.3</text>
<line class="grid" x1="319.8" y1="116" x2="319.8" y2="476"/>
<text x="319.8" y="500.0" font-size="11" text-anchor="middle" font-weight="400">0.28.2</text>
<line class="grid" x1="397.8" y1="116" x2="397.8" y2="476"/>
<text x="397.8" y="500.0" font-size="11" text-anchor="middle" font-weight="400">0.30.2</text>
<line class="grid" x1="475.7" y1="116" x2="475.7" y2="476"/>
<text x="475.7" y="500.0" font-size="11" text-anchor="middle" font-weight="400">0.34.0</text>
<line class="grid" x1="553.7" y1="116" x2="553.7" y2="476"/>
<text x="553.7" y="500.0" font-size="11" text-anchor="middle" font-weight="400">0.42.0</text>
<line class="grid" x1="631.6" y1="116" x2="631.6" y2="476"/>
<text x="631.6" y="500.0" font-size="11" text-anchor="middle" font-weight="400">0.52.2</text>
<line class="grid" x1="709.6" y1="116" x2="709.6" y2="476"/>
<text x="709.6" y="500.0" font-size="11" text-anchor="middle" font-weight="400">0.55.0</text>
<line class="grid" x1="787.5" y1="116" x2="787.5" y2="476"/>
<text x="787.5" y="500.0" font-size="11" text-anchor="middle" font-weight="400">0.58.0</text>
<line class="grid" x1="846.0" y1="116" x2="846.0" y2="476"/>
<text x="846.0" y="500.0" font-size="11" text-anchor="middle" font-weight="400">0.64.1</text>
<line x1="86" y1="92" x2="110" y2="92" stroke="#6b7280" stroke-width="2.6"/>
<circle cx="98" cy="92" r="3" fill="#6b7280"/>
<text x="118.0" y="96.0" font-size="11" text-anchor="start" font-weight="400">Default</text>
<line x1="218" y1="92" x2="242" y2="92" stroke="#2563eb" stroke-width="2.6"/>
<circle cx="230" cy="92" r="3" fill="#2563eb"/>
<text x="250.0" y="96.0" font-size="11" text-anchor="start" font-weight="400">Built-in</text>
<line x1="350" y1="92" x2="374" y2="92" stroke="#16a34a" stroke-width="2.6"/>
<circle cx="362" cy="92" r="3" fill="#16a34a"/>
<text x="382.0" y="96.0" font-size="11" text-anchor="start" font-weight="400">Ruff</text>
<polyline points="105.5,263.2 125.0,248.8 144.5,260.1 163.9,264.6 183.4,279.7 202.9,243.5 222.4,236.4 241.9,272.5 495.2,163.0 514.7,216.6 534.2,264.5 553.7,261.2 573.2,230.1 592.7,237.9 612.2,262.5 631.6,241.1 651.1,250.7 670.6,240.7 690.1,253.4 709.6,246.0 729.1,245.1 748.6,280.2 768.1,245.8 787.5,239.8 807.0,248.9 826.5,242.6 846.0,242.1" fill="none" stroke="#6b7280" stroke-width="2.4" stroke-linejoin="round" stroke-linecap="round"/>
<circle cx="105.5" cy="263.2" r="3" fill="#6b7280"/>
<circle cx="125.0" cy="248.8" r="3" fill="#6b7280"/>
<circle cx="144.5" cy="260.1" r="3" fill="#6b7280"/>
<circle cx="163.9" cy="264.6" r="3" fill="#6b7280"/>
<circle cx="183.4" cy="279.7" r="3" fill="#6b7280"/>
<circle cx="202.9" cy="243.5" r="3" fill="#6b7280"/>
<circle cx="222.4" cy="236.4" r="3" fill="#6b7280"/>
<circle cx="241.9" cy="272.5" r="3" fill="#6b7280"/>
<circle cx="495.2" cy="163.0" r="3" fill="#6b7280"/>
<circle cx="514.7" cy="216.6" r="3" fill="#6b7280"/>
<circle cx="534.2" cy="264.5" r="3" fill="#6b7280"/>
<circle cx="553.7" cy="261.2" r="3" fill="#6b7280"/>
<circle cx="573.2" cy="230.1" r="3" fill="#6b7280"/>
<circle cx="592.7" cy="237.9" r="3" fill="#6b7280"/>
<circle cx="612.2" cy="262.5" r="3" fill="#6b7280"/>
<circle cx="631.6" cy="241.1" r="3" fill="#6b7280"/>
<circle cx="651.1" cy="250.7" r="3" fill="#6b7280"/>
<circle cx="670.6" cy="240.7" r="3" fill="#6b7280"/>
<circle cx="690.1" cy="253.4" r="3" fill="#6b7280"/>
<circle cx="709.6" cy="246.0" r="3" fill="#6b7280"/>
<circle cx="729.1" cy="245.1" r="3" fill="#6b7280"/>
<circle cx="748.6" cy="280.2" r="3" fill="#6b7280"/>
<circle cx="768.1" cy="245.8" r="3" fill="#6b7280"/>
<circle cx="787.5" cy="239.8" r="3" fill="#6b7280"/>
<circle cx="807.0" cy="248.9" r="3" fill="#6b7280"/>
<circle cx="826.5" cy="242.6" r="3" fill="#6b7280"/>
<circle cx="846.0" cy="242.1" r="3" fill="#6b7280"/>
<polyline points="826.5,382.7 846.0,382.4" fill="none" stroke="#2563eb" stroke-width="2.4" stroke-linejoin="round" stroke-linecap="round"/>
<circle cx="826.5" cy="382.7" r="3" fill="#2563eb"/>
<circle cx="846.0" cy="382.4" r="3" fill="#2563eb"/>
<polyline points="631.6,380.1 651.1,381.3 670.6,375.4 690.1,380.1 709.6,378.6 729.1,383.2 748.6,391.5 768.1,377.9 787.5,377.5 807.0,370.0 826.5,384.9 846.0,381.5" fill="none" stroke="#16a34a" stroke-width="2.4" stroke-linejoin="round" stroke-linecap="round"/>
<circle cx="631.6" cy="380.1" r="3" fill="#16a34a"/>
<circle cx="651.1" cy="381.3" r="3" fill="#16a34a"/>
<circle cx="670.6" cy="375.4" r="3" fill="#16a34a"/>
<circle cx="690.1" cy="380.1" r="3" fill="#16a34a"/>
<circle cx="709.6" cy="378.6" r="3" fill="#16a34a"/>
<circle cx="729.1" cy="383.2" r="3" fill="#16a34a"/>
<circle cx="748.6" cy="391.5" r="3" fill="#16a34a"/>
<circle cx="768.1" cy="377.9" r="3" fill="#16a34a"/>
<circle cx="787.5" cy="377.5" r="3" fill="#16a34a"/>
<circle cx="807.0" cy="370.0" r="3" fill="#16a34a"/>
<circle cx="826.5" cy="384.9" r="3" fill="#16a34a"/>
<circle cx="846.0" cy="381.5" r="3" fill="#16a34a"/>
<text x="466.0" y="530.0" font-size="11" text-anchor="middle" font-weight="400">Release version</text>
<text x="44.0" y="100.0" font-size="11" text-anchor="start" font-weight="400">Median</text>
</svg>
