<svg xmlns="http://www.w3.org/2000/svg" width="980" height="640" viewBox="0 0 980 640" role="img" aria-labelledby="title desc">
  <title id="title">datamodel-code-generator release benchmarks</title>
  <desc id="desc">Historical median generation time by release version for Large / OpenAPI.</desc>
  <style>
    text { font-family: Inter, ui-sans-serif, system-ui, -apple-system, BlinkMacSystemFont, "Segoe UI", sans-serif; fill: #111827; }
    .muted { fill: #6b7280; }
    .axis { stroke: #374151; stroke-width: 1.2; }
    .grid { stroke: #d1d5db; stroke-width: 1; stroke-dasharray: 4 5; }
    .panel { fill: #ffffff; stroke: #e5e7eb; stroke-width: 1; }
  </style>
  <rect width="100%" height="100%" fill="#ffffff"/>
  <rect class="panel" x="20" y="20" width="940" height="600" rx="8"/>
<text x="44.0" y="48.0" font-size="22" text-anchor="start" font-weight="700">datamodel-code-generator release trend: Large / OpenAPI</text>
<text x="44.0" y="74.0" font-size="13" text-anchor="start" font-weight="400">Median generation time by release version. Lower is faster.</text>
<line class="grid" x1="86" y1="476.0" x2="846" y2="476.0"/>
<text x="74.0" y="480.0" font-size="11" text-anchor="end" font-weight="400">0.00ms</text>
<line class="grid" x1="86" y1="386.0" x2="846" y2="386.0"/>
<text x="74.0" y="390.0" font-size="11" text-anchor="end" font-weight="400">1.58s</text>
<line class="grid" x1="86" y1="296.0" x2="846" y2="296.0"/>
<text x="74.0" y="300.0" font-size="11" text-anchor="end" font-weight="400">3.16s</text>
<line class="grid" x1="86" y1="206.0" x2="846" y2="206.0"/>
<text x="74.0" y="210.0" font-size="11" text-anchor="end" font-weight="400">4.74s</text>
<line class="grid" x1="86" y1="116.0" x2="846" y2="116.0"/>
<text x="74.0" y="120.0" font-size="11" text-anchor="end" font-weight="400">6.32s</text>
<line class="axis" x1="86" y1="116" x2="86" y2="476"/>
<line class="axis" x1="86" y1="476" x2="846" y2="476"/>
<line class="grid" x1="86.0" y1="116" x2="86.0" y2="476"/>
<text x="86.0" y="500.0" font-size="11" text-anchor="middle" font-weight="400">0.17.2</text>
<line class="grid" x1="163.6" y1="116" x2="163.6" y2="476"/>
<text x="163.6" y="500.0" font-size="11" text-anchor="middle" font-weight="400">0.25.7</text>
<line class="grid" x1="241.1" y1="116" x2="241.1" y2="476"/>
<text x="241.1" y="500.0" font-size="11" text-anchor="middle" font-weight="400">0.26.5</text>
<line class="grid" x1="318.7" y1="116" x2="318.7" y2="476"/>
<text x="318.7" y="500.0" font-size="11" text-anchor="middle" font-weight="400">0.28.0</text>
<line class="grid" x1="396.2" y1="116" x2="396.2" y2="476"/>
<text x="396.2" y="500.0" font-size="11" text-anchor="middle" font-weight="400">0.28.5</text>
<line class="grid" x1="473.8" y1="116" x2="473.8" y2="476"/>
<text x="473.8" y="500.0" font-size="11" text-anchor="middle" font-weight="400">0.31.0</text>
<line class="grid" x1="551.3" y1="116" x2="551.3" y2="476"/>
<text x="551.3" y="500.0" font-size="11" text-anchor="middle" font-weight="400">0.34.0</text>
<line class="grid" x1="628.9" y1="116" x2="628.9" y2="476"/>
<text x="628.9" y="500.0" font-size="11" text-anchor="middle" font-weight="400">0.42.2</text>
<line class="grid" x1="706.4" y1="116" x2="706.4" y2="476"/>
<text x="706.4" y="500.0" font-size="11" text-anchor="middle" font-weight="400">0.54.0</text>
<line class="grid" x1="784.0" y1="116" x2="784.0" y2="476"/>
<text x="784.0" y="500.0" font-size="11" text-anchor="middle" font-weight="400">0.57.0</text>
<line class="grid" x1="846.0" y1="116" x2="846.0" y2="476"/>
<text x="846.0" y="500.0" font-size="11" text-anchor="middle" font-weight="400">0.64.1</text>
<line x1="86" y1="92" x2="110" y2="92" stroke="#6b7280" stroke-width="2.6"/>
<circle cx="98" cy="92" r="3" fill="#6b7280"/>
<text x="118.0" y="96.0" font-size="11" text-anchor="start" font-weight="400">Default</text>
<line x1="218" y1="92" x2="242" y2="92" stroke="#2563eb" stroke-width="2.6"/>
<circle cx="230" cy="92" r="3" fill="#2563eb"/>
<text x="250.0" y="96.0" font-size="11" text-anchor="start" font-weight="400">Built-in</text>
<line x1="350" y1="92" x2="374" y2="92" stroke="#16a34a" stroke-width="2.6"/>
<circle cx="362" cy="92" r="3" fill="#16a34a"/>
<text x="382.0" y="96.0" font-size="11" text-anchor="start" font-weight="400">Ruff</text>
<polyline points="101.5,293.8 117.0,289.1 132.5,294.4 148.0,299.5 163.6,309.4 179.1,287.3 194.6,275.2 210.1,302.8 225.6,304.4 241.1,293.2 256.6,278.3 272.1,288.5 287.6,293.7 303.1,271.3 318.7,304.9 334.2,278.1 349.7,293.9 365.2,282.4 380.7,306.1 396.2,272.9 411.7,207.0 427.2,170.6 442.7,265.9 458.2,163.0 473.8,187.1 489.3,201.2 504.8,201.9 520.3,197.0 535.8,167.3 551.3,206.0 566.8,214.0 582.3,266.2 597.8,297.5 613.3,288.4 628.9,278.0 644.4,291.8 659.9,316.2 675.4,279.3 690.9,287.6 706.4,280.6 721.9,286.1 737.4,274.8 752.9,284.1 768.4,309.4 784.0,282.5 799.5,272.1 815.0,273.7 830.5,281.1 846.0,288.1" fill="none" stroke="#6b7280" stroke-width="2.4" stroke-linejoin="round" stroke-linecap="round"/>
<circle cx="101.5" cy="293.8" r="3" fill="#6b7280"/>
<circle cx="117.0" cy="289.1" r="3" fill="#6b7280"/>
<circle cx="132.5" cy="294.4" r="3" fill="#6b7280"/>
<circle cx="148.0" cy="299.5" r="3" fill="#6b7280"/>
<circle cx="163.6" cy="309.4" r="3" fill="#6b7280"/>
<circle cx="179.1" cy="287.3" r="3" fill="#6b7280"/>
<circle cx="194.6" cy="275.2" r="3" fill="#6b7280"/>
<circle cx="210.1" cy="302.8" r="3" fill="#6b7280"/>
<circle cx="225.6" cy="304.4" r="3" fill="#6b7280"/>
<circle cx="241.1" cy="293.2" r="3" fill="#6b7280"/>
<circle cx="256.6" cy="278.3" r="3" fill="#6b7280"/>
<circle cx="272.1" cy="288.5" r="3" fill="#6b7280"/>
<circle cx="287.6" cy="293.7" r="3" fill="#6b7280"/>
<circle cx="303.1" cy="271.3" r="3" fill="#6b7280"/>
<circle cx="318.7" cy="304.9" r="3" fill="#6b7280"/>
<circle cx="334.2" cy="278.1" r="3" fill="#6b7280"/>
<circle cx="349.7" cy="293.9" r="3" fill="#6b7280"/>
<circle cx="365.2" cy="282.4" r="3" fill="#6b7280"/>
<circle cx="380.7" cy="306.1" r="3" fill="#6b7280"/>
<circle cx="396.2" cy="272.9" r="3" fill="#6b7280"/>
<circle cx="411.7" cy="207.0" r="3" fill="#6b7280"/>
<circle cx="427.2" cy="170.6" r="3" fill="#6b7280"/>
<circle cx="442.7" cy="265.9" r="3" fill="#6b7280"/>
<circle cx="458.2" cy="163.0" r="3" fill="#6b7280"/>
<circle cx="473.8" cy="187.1" r="3" fill="#6b7280"/>
<circle cx="489.3" cy="201.2" r="3" fill="#6b7280"/>
<circle cx="504.8" cy="201.9" r="3" fill="#6b7280"/>
<circle cx="520.3" cy="197.0" r="3" fill="#6b7280"/>
<circle cx="535.8" cy="167.3" r="3" fill="#6b7280"/>
<circle cx="551.3" cy="206.0" r="3" fill="#6b7280"/>
<circle cx="566.8" cy="214.0" r="3" fill="#6b7280"/>
<circle cx="582.3" cy="266.2" r="3" fill="#6b7280"/>
<circle cx="597.8" cy="297.5" r="3" fill="#6b7280"/>
<circle cx="613.3" cy="288.4" r="3" fill="#6b7280"/>
<circle cx="628.9" cy="278.0" r="3" fill="#6b7280"/>
<circle cx="644.4" cy="291.8" r="3" fill="#6b7280"/>
<circle cx="659.9" cy="316.2" r="3" fill="#6b7280"/>
<circle cx="675.4" cy="279.3" r="3" fill="#6b7280"/>
<circle cx="690.9" cy="287.6" r="3" fill="#6b7280"/>
<circle cx="706.4" cy="280.6" r="3" fill="#6b7280"/>
<circle cx="721.9" cy="286.1" r="3" fill="#6b7280"/>
<circle cx="737.4" cy="274.8" r="3" fill="#6b7280"/>
<circle cx="752.9" cy="284.1" r="3" fill="#6b7280"/>
<circle cx="768.4" cy="309.4" r="3" fill="#6b7280"/>
<circle cx="784.0" cy="282.5" r="3" fill="#6b7280"/>
<circle cx="799.5" cy="272.1" r="3" fill="#6b7280"/>
<circle cx="815.0" cy="273.7" r="3" fill="#6b7280"/>
<circle cx="830.5" cy="281.1" r="3" fill="#6b7280"/>
<circle cx="846.0" cy="288.1" r="3" fill="#6b7280"/>
<polyline points="830.5,392.8 846.0,393.7" fill="none" stroke="#2563eb" stroke-width="2.4" stroke-linejoin="round" stroke-linecap="round"/>
<circle cx="830.5" cy="392.8" r="3" fill="#2563eb"/>
<circle cx="846.0" cy="393.7" r="3" fill="#2563eb"/>
<polyline points="675.4,389.2 690.9,391.9 706.4,387.8 721.9,391.9 737.4,387.4 752.9,390.6 768.4,399.0 784.0,388.0 799.5,384.8 815.0,379.0 830.5,395.9 846.0,397.0" fill="none" stroke="#16a34a" stroke-width="2.4" stroke-linejoin="round" stroke-linecap="round"/>
<circle cx="675.4" cy="389.2" r="3" fill="#16a34a"/>
<circle cx="690.9" cy="391.9" r="3" fill="#16a34a"/>
<circle cx="706.4" cy="387.8" r="3" fill="#16a34a"/>
<circle cx="721.9" cy="391.9" r="3" fill="#16a34a"/>
<circle cx="737.4" cy="387.4" r="3" fill="#16a34a"/>
<circle cx="752.9" cy="390.6" r="3" fill="#16a34a"/>
<circle cx="768.4" cy="399.0" r="3" fill="#16a34a"/>
<circle cx="784.0" cy="388.0" r="3" fill="#16a34a"/>
<circle cx="799.5" cy="384.8" r="3" fill="#16a34a"/>
<circle cx="815.0" cy="379.0" r="3" fill="#16a34a"/>
<circle cx="830.5" cy="395.9" r="3" fill="#16a34a"/>
<circle cx="846.0" cy="397.0" r="3" fill="#16a34a"/>
<text x="466.0" y="530.0" font-size="11" text-anchor="middle" font-weight="400">Release version</text>
<text x="44.0" y="100.0" font-size="11" text-anchor="start" font-weight="400">Median</text>
</svg>
