<svg xmlns="http://www.w3.org/2000/svg" width="980" height="640" viewBox="0 0 980 640" role="img" aria-labelledby="title desc">
  <title id="title">datamodel-code-generator release benchmarks</title>
  <desc id="desc">Historical median generation time by release version for Small / OpenAPI.</desc>
  <style>
    text { font-family: Inter, ui-sans-serif, system-ui, -apple-system, BlinkMacSystemFont, "Segoe UI", sans-serif; fill: #111827; }
    .muted { fill: #6b7280; }
    .axis { stroke: #374151; stroke-width: 1.2; }
    .grid { stroke: #d1d5db; stroke-width: 1; stroke-dasharray: 4 5; }
    .panel { fill: #ffffff; stroke: #e5e7eb; stroke-width: 1; }
  </style>
  <rect width="100%" height="100%" fill="#ffffff"/>
  <rect class="panel" x="20" y="20" width="940" height="600" rx="8"/>
<text x="44.0" y="48.0" font-size="22" text-anchor="start" font-weight="700">datamodel-code-generator release trend: Small / OpenAPI</text>
<text x="44.0" y="74.0" font-size="13" text-anchor="start" font-weight="400">Median generation time by release version. Lower is faster.</text>
<line class="grid" x1="86" y1="476.0" x2="846" y2="476.0"/>
<text x="74.0" y="480.0" font-size="11" text-anchor="end" font-weight="400">0.00ms</text>
<line class="grid" x1="86" y1="386.0" x2="846" y2="386.0"/>
<text x="74.0" y="390.0" font-size="11" text-anchor="end" font-weight="400">746ms</text>
<line class="grid" x1="86" y1="296.0" x2="846" y2="296.0"/>
<text x="74.0" y="300.0" font-size="11" text-anchor="end" font-weight="400">1.49s</text>
<line class="grid" x1="86" y1="206.0" x2="846" y2="206.0"/>
<text x="74.0" y="210.0" font-size="11" text-anchor="end" font-weight="400">2.24s</text>
<line class="grid" x1="86" y1="116.0" x2="846" y2="116.0"/>
<text x="74.0" y="120.0" font-size="11" text-anchor="end" font-weight="400">2.98s</text>
<line class="axis" x1="86" y1="116" x2="86" y2="476"/>
<line class="axis" x1="86" y1="476" x2="846" y2="476"/>
<line class="grid" x1="86.0" y1="116" x2="86.0" y2="476"/>
<text x="86.0" y="500.0" font-size="11" text-anchor="middle" font-weight="400">0.17.2</text>
<line class="grid" x1="163.9" y1="116" x2="163.9" y2="476"/>
<text x="163.9" y="500.0" font-size="11" text-anchor="middle" font-weight="400">0.25.6</text>
<line class="grid" x1="241.9" y1="116" x2="241.9" y2="476"/>
<text x="241.9" y="500.0" font-size="11" text-anchor="middle" font-weight="400">0.26.3</text>
<line class="grid" x1="319.8" y1="116" x2="319.8" y2="476"/>
<text x="319.8" y="500.0" font-size="11" text-anchor="middle" font-weight="400">0.28.2</text>
<line class="grid" x1="397.8" y1="116" x2="397.8" y2="476"/>
<text x="397.8" y="500.0" font-size="11" text-anchor="middle" font-weight="400">0.30.2</text>
<line class="grid" x1="475.7" y1="116" x2="475.7" y2="476"/>
<text x="475.7" y="500.0" font-size="11" text-anchor="middle" font-weight="400">0.34.0</text>
<line class="grid" x1="553.7" y1="116" x2="553.7" y2="476"/>
<text x="553.7" y="500.0" font-size="11" text-anchor="middle" font-weight="400">0.42.0</text>
<line class="grid" x1="631.6" y1="116" x2="631.6" y2="476"/>
<text x="631.6" y="500.0" font-size="11" text-anchor="middle" font-weight="400">0.52.2</text>
<line class="grid" x1="709.6" y1="116" x2="709.6" y2="476"/>
<text x="709.6" y="500.0" font-size="11" text-anchor="middle" font-weight="400">0.55.0</text>
<line class="grid" x1="787.5" y1="116" x2="787.5" y2="476"/>
<text x="787.5" y="500.0" font-size="11" text-anchor="middle" font-weight="400">0.58.0</text>
<line class="grid" x1="846.0" y1="116" x2="846.0" y2="476"/>
<text x="846.0" y="500.0" font-size="11" text-anchor="middle" font-weight="400">0.64.1</text>
<line x1="86" y1="92" x2="110" y2="92" stroke="#6b7280" stroke-width="2.6"/>
<circle cx="98" cy="92" r="3" fill="#6b7280"/>
<text x="118.0" y="96.0" font-size="11" text-anchor="start" font-weight="400">Default</text>
<line x1="218" y1="92" x2="242" y2="92" stroke="#2563eb" stroke-width="2.6"/>
<circle cx="230" cy="92" r="3" fill="#2563eb"/>
<text x="250.0" y="96.0" font-size="11" text-anchor="start" font-weight="400">Built-in</text>
<line x1="350" y1="92" x2="374" y2="92" stroke="#16a34a" stroke-width="2.6"/>
<circle cx="362" cy="92" r="3" fill="#16a34a"/>
<text x="382.0" y="96.0" font-size="11" text-anchor="start" font-weight="400">Ruff</text>
<polyline points="105.5,424.7 125.0,420.5 144.5,423.3 163.9,422.1 183.4,424.3 202.9,422.9 222.4,416.3 241.9,423.7 495.2,214.5 514.7,271.8 534.2,212.0 553.7,209.8 573.2,200.0 592.7,224.3 612.2,248.0 631.6,198.7 651.1,206.1 670.6,191.1 690.1,209.1 709.6,201.9 729.1,180.9 748.6,228.9 768.1,205.2 787.5,163.0 807.0,189.1 826.5,195.8 846.0,198.5" fill="none" stroke="#6b7280" stroke-width="2.4" stroke-linejoin="round" stroke-linecap="round"/>
<circle cx="105.5" cy="424.7" r="3" fill="#6b7280"/>
<circle cx="125.0" cy="420.5" r="3" fill="#6b7280"/>
<circle cx="144.5" cy="423.3" r="3" fill="#6b7280"/>
<circle cx="163.9" cy="422.1" r="3" fill="#6b7280"/>
<circle cx="183.4" cy="424.3" r="3" fill="#6b7280"/>
<circle cx="202.9" cy="422.9" r="3" fill="#6b7280"/>
<circle cx="222.4" cy="416.3" r="3" fill="#6b7280"/>
<circle cx="241.9" cy="423.7" r="3" fill="#6b7280"/>
<circle cx="495.2" cy="214.5" r="3" fill="#6b7280"/>
<circle cx="514.7" cy="271.8" r="3" fill="#6b7280"/>
<circle cx="534.2" cy="212.0" r="3" fill="#6b7280"/>
<circle cx="553.7" cy="209.8" r="3" fill="#6b7280"/>
<circle cx="573.2" cy="200.0" r="3" fill="#6b7280"/>
<circle cx="592.7" cy="224.3" r="3" fill="#6b7280"/>
<circle cx="612.2" cy="248.0" r="3" fill="#6b7280"/>
<circle cx="631.6" cy="198.7" r="3" fill="#6b7280"/>
<circle cx="651.1" cy="206.1" r="3" fill="#6b7280"/>
<circle cx="670.6" cy="191.1" r="3" fill="#6b7280"/>
<circle cx="690.1" cy="209.1" r="3" fill="#6b7280"/>
<circle cx="709.6" cy="201.9" r="3" fill="#6b7280"/>
<circle cx="729.1" cy="180.9" r="3" fill="#6b7280"/>
<circle cx="748.6" cy="228.9" r="3" fill="#6b7280"/>
<circle cx="768.1" cy="205.2" r="3" fill="#6b7280"/>
<circle cx="787.5" cy="163.0" r="3" fill="#6b7280"/>
<circle cx="807.0" cy="189.1" r="3" fill="#6b7280"/>
<circle cx="826.5" cy="195.8" r="3" fill="#6b7280"/>
<circle cx="846.0" cy="198.5" r="3" fill="#6b7280"/>
<polyline points="826.5,210.8 846.0,200.9" fill="none" stroke="#2563eb" stroke-width="2.4" stroke-linejoin="round" stroke-linecap="round"/>
<circle cx="826.5" cy="210.8" r="3" fill="#2563eb"/>
<circle cx="846.0" cy="200.9" r="3" fill="#2563eb"/>
<polyline points="631.6,203.0 651.1,210.0 670.6,196.4 690.1,213.7 709.6,202.1 729.1,190.9 748.6,231.9 768.1,208.5 787.5,166.0 807.0,194.6 826.5,209.5 846.0,214.3" fill="none" stroke="#16a34a" stroke-width="2.4" stroke-linejoin="round" stroke-linecap="round"/>
<circle cx="631.6" cy="203.0" r="3" fill="#16a34a"/>
<circle cx="651.1" cy="210.0" r="3" fill="#16a34a"/>
<circle cx="670.6" cy="196.4" r="3" fill="#16a34a"/>
<circle cx="690.1" cy="213.7" r="3" fill="#16a34a"/>
<circle cx="709.6" cy="202.1" r="3" fill="#16a34a"/>
<circle cx="729.1" cy="190.9" r="3" fill="#16a34a"/>
<circle cx="748.6" cy="231.9" r="3" fill="#16a34a"/>
<circle cx="768.1" cy="208.5" r="3" fill="#16a34a"/>
<circle cx="787.5" cy="166.0" r="3" fill="#16a34a"/>
<circle cx="807.0" cy="194.6" r="3" fill="#16a34a"/>
<circle cx="826.5" cy="209.5" r="3" fill="#16a34a"/>
<circle cx="846.0" cy="214.3" r="3" fill="#16a34a"/>
<text x="466.0" y="530.0" font-size="11" text-anchor="middle" font-weight="400">Release version</text>
<text x="44.0" y="100.0" font-size="11" text-anchor="start" font-weight="400">Median</text>
</svg>
